<?xml version="1.0" encoding="UTF-8" standalone="no"?>
<!-- Created with Inkscape (http://www.inkscape.org/) -->

<svg
   xmlns:dc="http://purl.org/dc/elements/1.1/"
   xmlns:cc="http://creativecommons.org/ns#"
   xmlns:rdf="http://www.w3.org/1999/02/22-rdf-syntax-ns#"
   xmlns:svg="http://www.w3.org/2000/svg"
   xmlns="http://www.w3.org/2000/svg"
   xmlns:sodipodi="http://sodipodi.sourceforge.net/DTD/sodipodi-0.dtd"
   xmlns:inkscape="http://www.inkscape.org/namespaces/inkscape"
   width="210mm"
   height="297mm"
   viewBox="0 0 210 297"
   version="1.1"
   id="svg8"
   inkscape:export-filename="C:\programming\programms\simons-framekiller_\icon-256x256.png"
   inkscape:export-xdpi="63.915699"
   inkscape:export-ydpi="63.915699"
   inkscape:version="0.92.4 (5da689c313, 2019-01-14)"
   sodipodi:docname="icon.svg">
  <defs
     id="defs2" />
  <sodipodi:namedview
     id="base"
     pagecolor="#ffffff"
     bordercolor="#666666"
     borderopacity="1.0"
     inkscape:pageopacity="0.0"
     inkscape:pageshadow="2"
     inkscape:zoom="0.7"
     inkscape:cx="569.09812"
     inkscape:cy="966.3555"
     inkscape:document-units="mm"
     inkscape:current-layer="layer1"
     showgrid="false"
     inkscape:window-width="1920"
     inkscape:window-height="1001"
     inkscape:window-x="-9"
     inkscape:window-y="-9"
     inkscape:window-maximized="1" />
  <metadata
     id="metadata5">
    <rdf:RDF>
      <cc:Work
         rdf:about="">
        <dc:format>image/svg+xml</dc:format>
        <dc:type
           rdf:resource="http://purl.org/dc/dcmitype/StillImage" />
        <dc:title />
      </cc:Work>
    </rdf:RDF>
  </metadata>
  <g
     inkscape:label="Layer 1"
     inkscape:groupmode="layer"
     id="layer1">
    <g
       id="g4667"
       transform="matrix(0.19501581,-0.16655924,0.16655924,0.19501581,12.265688,54.525455)">
      <path
         id="path4594"
         d="m 360.929,338.622 c 0,0 89.293,-5.134 117.423,-8.252 37.218,-4.126 33.549,-16.504 33.549,-16.504 0,-7.221 -24.463,-47.45 -58.711,-66.018 -28.033,-15.197 -71.991,-29.57 -117.423,-33.009 -37.863,-2.866 -36.17,-56.218 -67.099,-82.521 -11.988,-10.196 -30.404,-13.41 -25.162,0 5.242,13.41 30.404,71.174 0,82.521 -30.404,11.347 -109.035,15.472 -201.296,90.773 0,0 -31.752,-12.525 -41.937,0 -2.795,3.438 16.775,24.757 16.775,24.757 0,0 -16.775,31.632 -16.775,49.513 0,0.688 34.947,-14.441 41.937,-41.261 2.951,-11.324 86.938,-30.793 150.972,-16.504 67.798,15.129 109.035,16.504 109.035,16.504"
         style="fill:#585661"
         inkscape:connector-curvature="0" />
      <g
         id="g4600">
        <path
           id="path4596"
           d="m 436.415,289.109 c -5.242,-10.659 -25.861,-25.788 -67.099,-24.757 0,0 7.688,17.879 25.162,24.757 17.473,6.877 41.937,0 41.937,0 z"
           style="fill:#f0ebe1"
           inkscape:connector-curvature="0" />
        <path
           id="path4598"
           d="m 347.258,338.622 h 13.67 c 0,0 89.293,-5.134 117.423,-8.252 29.783,-3.301 33.372,-11.873 33.623,-15.171 C 462.876,318.38 394.11,284.6 347.258,338.622 Z"
           style="fill:#f0ebe1"
           inkscape:connector-curvature="0" />
      </g>
      <path
         id="path4602"
         d="m 305.599,322.553 c 0,0 -8.274,60.081 -3.381,65.582 4.893,5.501 63.642,-41.86 67.099,-66.018 2.298,-16.069 -47.215,-16.069 -63.718,0.436 z"
         style="fill:#6b676e"
         inkscape:connector-curvature="0" />
      <path
         id="path4604"
         d="m 273.236,336.055 c -25.402,-30.008 -65.532,-46.512 -91.42,-46.512 -33.009,0 -49.513,8.252 -24.757,16.504 14.695,4.899 32.265,9.825 45.872,18.177 29.443,6.239 53.36,9.82 70.305,11.831 z"
         style="fill:#f0ebe1"
         inkscape:connector-curvature="0" />
      <path
         id="path4606"
         d="m 239.581,248.283 c 206.304,-24.757 272.392,66.916 272.392,66.916 v 0 c 0.063,-0.824 -0.073,-1.334 -0.073,-1.334 0,-7.221 -24.464,-47.45 -58.711,-66.018 -28.033,-15.196 -71.991,-29.57 -117.423,-33.009 -37.863,-2.865 -36.17,-56.218 -67.099,-82.521 -11.988,-10.195 -30.404,-13.41 -25.162,0 5.242,13.41 30.404,71.174 0,82.521 -30.404,11.347 -109.035,15.473 -201.296,90.774 33.69,16.072 48.984,-39.522 197.372,-57.329 z"
         style="fill:#6b676e"
         inkscape:connector-curvature="0" />
      <g
         id="g4608" />
      <g
         id="g4610" />
      <g
         id="g4612" />
      <g
         id="g4614" />
      <g
         id="g4616" />
      <g
         id="g4618" />
      <g
         id="g4620" />
      <g
         id="g4622" />
      <g
         id="g4624" />
      <g
         id="g4626" />
      <g
         id="g4628" />
      <g
         id="g4630" />
      <g
         id="g4632" />
      <g
         id="g4634" />
      <g
         id="g4636" />
    </g>
    <path
       style="fill:#ff6600;stroke:none;stroke-width:1.42857146"
       d="m 283.22111,481.19099 c -3.86136,-5.90685 -9.27334,-19.16225 -12.59067,-30.83793 -1.74846,-6.15389 -3.26797,-11.33762 -3.37669,-11.51942 -0.10871,-0.1818 -5.11391,-1.27117 -11.12265,-2.42084 -18.84545,-3.60573 -20.31363,-5.79993 -10.67584,-15.95521 4.10186,-4.3221 10.92545,-8.81356 21.03449,-13.84542 17.84421,-8.8821 19.79415,-11.28283 29.43251,-36.23667 21.71599,-56.22299 45.87269,-93.31136 91.53195,-140.53118 49.59108,-51.28603 95.47247,-83.48451 145.49015,-102.10158 26.9086,-10.01564 62.95526,-15.72433 81.54712,-12.91458 l 7.03521,1.06323 -5.71428,4.98416 c -3.14286,2.74129 -17.92857,13.08246 -32.85715,22.98038 -32.71571,21.69111 -49.7461,37.51283 -58.38015,54.23683 -4.82719,9.35015 -5.76172,10.35714 -9.6118,10.35714 -10.41649,0 -28.60826,15.40194 -35.98437,30.46592 -4.77985,9.7617 -4.81382,11.78352 -0.30939,18.41238 1.96429,2.89071 3.56093,5.77209 3.54809,6.40306 -0.0129,0.63097 -4.93072,4.65448 -10.9286,8.94115 l -10.90526,7.79395 -16.5714,-0.3649 c -25.75497,-0.5671 -52.14217,5.76993 -70.91003,17.02945 -15.92118,9.5517 -35.84654,32.11072 -32.76536,37.09616 1.78014,2.88034 9.74693,1.08594 29.22541,-6.58257 11.10398,-4.37154 20.82375,-7.73669 21.59949,-7.4781 0.77576,0.25859 -2.84808,2.96129 -8.05297,6.00601 -28.5675,16.71129 -64.74148,51.50015 -83.61824,80.41645 -9.43493,14.45287 -10.64536,18.59093 -7.84809,26.8301 4.04616,11.91768 1.95038,36.12483 -4.13273,47.73485 l -1.82994,3.49256 z M 523.66955,169.4117 c 6.92534,-3.17011 27.88463,-22.89157 26.57697,-25.00739 -1.36197,-2.20372 -10.60578,-2.98929 -19.03391,-1.61758 -4.44369,0.72323 -12.61946,3.48951 -18.16839,6.14728 -10.3903,4.97666 -27.9461,17.11809 -27.9461,19.32728 0,1.19153 8.15022,3.77192 15.71429,4.97519 6.01514,0.95688 16.09655,-0.73009 22.85714,-3.82478 z"
       id="path839"
       inkscape:connector-curvature="0"
       transform="scale(0.26458333)" />
    <path
       style="fill:#ff7f2a;stroke:none;stroke-width:1.42857146"
       d="m 270.81241,400.88537 c 0,-4.38357 11.58694,-47.1726 16.13335,-59.57833 14.06855,-38.38863 28.08619,-64.15103 56.9674,-104.6978 17.50062,-24.56939 19.75639,-28.68816 19.75639,-36.07278 0,-11.527 -13.70779,-26.70726 -35.96659,-39.83006 -20.57915,-12.13256 -22.80461,-13.73791 -22.33714,-16.11314 1.33202,-6.76804 17.08981,-11.12864 31.74771,-8.78542 10.49455,1.67767 18.39466,4.45161 39.86306,13.99699 19.57183,8.70212 32.13242,11.46425 40.59843,8.92777 3.08332,-0.92378 12.55922,-6.27182 21.05756,-11.88453 33.95694,-22.42677 74.53446,-39.44905 105.64187,-44.31679 17.89169,-2.799726 48.33549,0.77856 66.40606,7.80519 l 7.98904,3.10649 -20,0.9019 c -33.16971,1.49579 -59.88203,8.62261 -92.85714,24.77423 -40.57962,19.87639 -71.48205,43.2163 -113.85397,85.99136 -48.0628,48.52008 -72.82855,85.26544 -94.59201,140.34772 -8.45997,21.41176 -13.10505,29.62943 -19.02023,33.6489 -6.01879,4.08986 -7.53379,4.44747 -7.53379,1.7783 z"
       id="path841"
       inkscape:connector-curvature="0"
       transform="scale(0.26458333)" />
    <path
       style="fill:#ff7f2a;stroke:none;stroke-width:1.42857146"
       d="m 506.93596,295.15701 c -3.1179,-3.38252 -9.46763,-11.4731 -14.11052,-17.97905 -18.35781,-25.72434 -18.74189,-26.87032 -12.87611,-38.41841 7.10338,-13.98459 22.65711,-27.54888 33.96898,-29.62406 4.83524,-0.88704 5.42884,-0.61466 7.53454,3.45732 7.04414,13.62188 4.69893,58.33312 -4.33483,82.6428 -1.24091,3.33929 -2.76402,6.07143 -3.38468,6.07143 -0.62066,0 -3.67948,-2.76751 -6.79738,-6.15003 z"
       id="path843"
       inkscape:connector-curvature="0"
       transform="scale(0.26458333)" />
  </g>
</svg>
